<svg width="25" height="24" viewBox="0 0 25 24" fill="none" xmlns="http://www.w3.org/2000/svg">
<ellipse cx="8.55328" cy="16" rx="7.57282" ry="8" fill="#F59C23"/>
<path d="M20.3858 9.99992C20.3858 9.86731 20.3359 9.74013 20.2472 9.64636C20.1584 9.5526 20.038 9.49992 19.9125 9.49992C19.787 9.49992 19.6666 9.5526 19.5778 9.64636C19.4891 9.74013 19.4392 9.86731 19.4392 9.99992H20.3858ZM7.13337 9.99992C7.13337 9.86731 7.08351 9.74013 6.99475 9.64636C6.90598 9.5526 6.7856 9.49992 6.66007 9.49992C6.53454 9.49992 6.41416 9.5526 6.3254 9.64636C6.23664 9.74013 6.18677 9.86731 6.18677 9.99992H7.13337ZM21.4706 12.3539C21.5595 12.4478 21.68 12.5005 21.8057 12.5005C21.9314 12.5005 22.0519 12.4478 22.1408 12.3539C22.2297 12.26 22.2796 12.1327 22.2796 11.9999C22.2796 11.8671 22.2297 11.7398 22.1408 11.6459L21.4706 12.3539ZM13.2863 2.99992L13.6214 2.64592C13.5774 2.59935 13.5252 2.56241 13.4677 2.5372C13.4102 2.512 13.3485 2.49902 13.2863 2.49902C13.224 2.49902 13.1624 2.512 13.1049 2.5372C13.0474 2.56241 12.9952 2.59935 12.9512 2.64592L13.2863 2.99992ZM4.43177 11.6459C4.3429 11.7398 4.29297 11.8671 4.29297 11.9999C4.29297 12.1327 4.3429 12.26 4.43177 12.3539C4.52064 12.4478 4.64118 12.5005 4.76687 12.5005C4.89255 12.5005 5.01309 12.4478 5.10196 12.3539L4.43177 11.6459ZM8.55328 21.4999H18.0193V20.4999H8.55328V21.4999ZM20.3858 18.9999V9.99992H19.4392V18.9999H20.3858ZM7.13337 18.9999V9.99992H6.18677V18.9999H7.13337ZM22.1408 11.6459L13.6214 2.64592L12.9512 3.35392L21.4706 12.3539L22.1408 11.6459ZM12.9512 2.64592L4.43177 11.6459L5.10196 12.3539L13.6214 3.35392L12.9512 2.64592ZM18.0193 21.4999C18.6469 21.4999 19.2489 21.2365 19.6927 20.7677C20.1365 20.2988 20.3858 19.663 20.3858 18.9999H19.4392C19.4392 19.3977 19.2896 19.7793 19.0233 20.0606C18.757 20.3419 18.3959 20.4999 18.0193 20.4999V21.4999ZM8.55328 20.4999C8.17669 20.4999 7.81554 20.3419 7.54925 20.0606C7.28297 19.7793 7.13337 19.3977 7.13337 18.9999H6.18677C6.18677 19.663 6.4361 20.2988 6.8799 20.7677C7.32371 21.2365 7.92564 21.4999 8.55328 21.4999V20.4999Z" fill="black"/>
</svg>
