<svg width="77" height="77" viewBox="0 0 77 77" fill="none" xmlns="http://www.w3.org/2000/svg">
<path d="M25.0248 6.41699H51.9748C62.2415 6.41699 70.5832 14.7587 70.5832 25.0253V51.9753C70.5832 56.9106 68.6227 61.6437 65.1329 65.1334C61.6432 68.6231 56.9101 70.5837 51.9748 70.5837H25.0248C14.7582 70.5837 6.4165 62.242 6.4165 51.9753V25.0253C6.4165 20.0901 8.37702 15.357 11.8668 11.8672C15.3565 8.37751 20.0896 6.41699 25.0248 6.41699ZM24.3832 12.8337C21.3199 12.8337 18.3821 14.0505 16.2161 16.2166C14.05 18.3826 12.8332 21.3204 12.8332 24.3837V52.617C12.8332 59.0016 17.9986 64.167 24.3832 64.167H52.6165C55.6798 64.167 58.6175 62.9501 60.7836 60.7841C62.9496 58.618 64.1665 55.6802 64.1665 52.617V24.3837C64.1665 17.9991 59.0011 12.8337 52.6165 12.8337H24.3832ZM55.3436 17.6462C56.4072 17.6462 57.4273 18.0687 58.1794 18.8208C58.9315 19.5729 59.354 20.5929 59.354 21.6566C59.354 22.7202 58.9315 23.7403 58.1794 24.4924C57.4273 25.2445 56.4072 25.667 55.3436 25.667C54.28 25.667 53.2599 25.2445 52.5078 24.4924C51.7557 23.7403 51.3332 22.7202 51.3332 21.6566C51.3332 20.5929 51.7557 19.5729 52.5078 18.8208C53.2599 18.0687 54.28 17.6462 55.3436 17.6462ZM38.4998 22.4587C42.7544 22.4587 46.8346 24.1488 49.843 27.1572C52.8514 30.1656 54.5415 34.2458 54.5415 38.5003C54.5415 42.7548 52.8514 46.8351 49.843 49.8435C46.8346 52.8519 42.7544 54.542 38.4998 54.542C34.2453 54.542 30.1651 52.8519 27.1567 49.8435C24.1483 46.8351 22.4582 42.7548 22.4582 38.5003C22.4582 34.2458 24.1483 30.1656 27.1567 27.1572C30.1651 24.1488 34.2453 22.4587 38.4998 22.4587ZM38.4998 28.8753C35.9471 28.8753 33.499 29.8894 31.6939 31.6944C29.8889 33.4995 28.8748 35.9476 28.8748 38.5003C28.8748 41.053 29.8889 43.5012 31.6939 45.3062C33.499 47.1113 35.9471 48.1253 38.4998 48.1253C41.0525 48.1253 43.5007 47.1113 45.3057 45.3062C47.1108 43.5012 48.1248 41.053 48.1248 38.5003C48.1248 35.9476 47.1108 33.4995 45.3057 31.6944C43.5007 29.8894 41.0525 28.8753 38.4998 28.8753Z" fill="black"/>
</svg>
