<svg width="81" height="84" viewBox="0 0 81 84" fill="none" xmlns="http://www.w3.org/2000/svg">
<path d="M64.125 10.5C65.9152 10.5 67.6321 11.2375 68.898 12.5503C70.1638 13.863 70.875 15.6435 70.875 17.5V66.5C70.875 68.3565 70.1638 70.137 68.898 71.4497C67.6321 72.7625 65.9152 73.5 64.125 73.5H16.875C15.0848 73.5 13.3679 72.7625 12.102 71.4497C10.8362 70.137 10.125 68.3565 10.125 66.5V17.5C10.125 15.6435 10.8362 13.863 12.102 12.5503C13.3679 11.2375 15.0848 10.5 16.875 10.5H64.125ZM62.4375 64.75V46.2C62.4375 43.1739 61.2783 40.2717 59.2149 38.1319C57.1516 35.9921 54.353 34.79 51.435 34.79C48.5662 34.79 45.225 36.61 43.605 39.34V35.455H34.1888V64.75H43.605V47.495C43.605 44.8 45.6975 42.595 48.2963 42.595C49.5494 42.595 50.7512 43.1112 51.6373 44.0302C52.5234 44.9491 53.0213 46.1954 53.0213 47.495V64.75H62.4375ZM23.22 29.96C24.7238 29.96 26.166 29.3405 27.2293 28.2378C28.2926 27.1351 28.89 25.6395 28.89 24.08C28.89 20.825 26.3588 18.165 23.22 18.165C21.7073 18.165 20.2565 18.7882 19.1868 19.8975C18.1172 21.0067 17.5163 22.5112 17.5163 24.08C17.5163 27.335 20.0813 29.96 23.22 29.96ZM27.9113 64.75V35.455H18.5625V64.75H27.9113Z" fill="black"/>
</svg>
