<?xml version="1.0" standalone="no"?>
<!DOCTYPE svg PUBLIC "-//W3C//DTD SVG 20010904//EN"
 "http://www.w3.org/TR/2001/REC-SVG-20010904/DTD/svg10.dtd">
<svg version="1.0" xmlns="http://www.w3.org/2000/svg"
 width="218.000000pt" height="181.000000pt" viewBox="0 0 218.000000 181.000000"
 preserveAspectRatio="xMidYMid meet">

<g transform="translate(0.000000,181.000000) scale(0.100000,-0.100000)"
fill="#000000" stroke="none">
<path d="M940 1704 c-66 -8 -80 -14 -80 -33 0 -11 4 -21 10 -23 14 -5 31 -151
18 -159 -14 -9 -6 -44 10 -43 6 1 30 2 52 3 46 1 65 26 37 46 -20 14 -24 69
-4 63 6 -3 18 -22 25 -43 7 -22 18 -43 25 -47 20 -13 65 -9 81 8 21 20 21 64
1 64 -8 0 -15 -6 -15 -12 0 -7 -9 2 -20 20 -11 17 -25 32 -32 32 -6 0 -2 9 10
20 27 25 28 50 5 79 -19 23 -63 32 -123 25z m60 -59 c16 -20 5 -45 -20 -45
-16 0 -20 7 -20 30 0 33 19 40 40 15z"/>
<path d="M1247 1691 c-2 -11 -1 -23 4 -28 14 -14 -21 -153 -38 -153 -7 0 -13
-7 -13 -15 0 -8 0 -18 0 -22 0 -7 80 -32 101 -33 12 0 19 44 8 50 -14 9 21
150 38 150 7 0 13 7 13 15 0 8 0 18 1 22 0 6 -81 32 -102 33 -4 0 -9 -9 -12
-19z"/>
<path d="M658 1621 c-85 -40 -96 -48 -87 -63 5 -10 15 -18 22 -18 7 0 26 -32
44 -70 17 -39 27 -70 22 -70 -9 0 -4 -37 6 -48 1 -1 30 9 63 24 56 24 60 28
51 48 -7 14 -19 22 -32 22 -34 -1 -32 29 2 44 26 10 29 15 20 32 -10 19 -21
20 -60 4 -11 -5 -19 1 -28 20 -6 15 -10 28 -9 29 2 1 13 7 25 14 18 9 24 8 31
-5 8 -14 12 -14 35 -3 26 14 26 14 9 50 l-17 36 -97 -46z"/>
<path d="M1503 1611 c-7 -11 -8 -22 -3 -27 13 -13 -64 -130 -89 -137 -37 -9
-22 -34 47 -78 37 -23 76 -48 87 -55 18 -12 22 -10 42 21 l22 33 -25 17 c-19
12 -29 14 -39 5 -10 -8 -18 -8 -33 1 -17 10 -18 17 -9 36 12 26 24 28 51 8 14
-11 23 -12 33 -4 14 12 18 39 5 39 -5 0 -16 6 -26 13 -16 12 -17 16 -5 34 12
19 15 20 35 6 14 -8 20 -21 17 -29 -5 -14 22 -43 40 -44 4 0 16 14 27 32 l19
32 -74 47 c-110 71 -109 70 -122 50z"/>
<path d="M1781 1407 c-6 -8 -8 -16 -6 -19 9 -9 -106 -90 -131 -93 -14 -1 -28
-5 -31 -9 -7 -7 9 -40 38 -75 16 -19 22 -21 35 -11 8 7 13 19 10 26 -3 7 11
24 30 39 19 14 34 24 34 21 0 -3 -11 -36 -25 -72 -27 -71 -26 -91 4 -119 19
-16 23 -14 95 40 42 32 82 55 89 52 7 -3 20 1 30 8 15 11 14 15 -14 53 -17 23
-34 42 -39 42 -12 0 -32 -28 -26 -38 3 -5 -8 -19 -24 -31 -35 -26 -37 -19 -10
49 26 65 25 76 -6 117 -28 36 -36 40 -53 20z"/>
<path d="M927 1394 c-184 -44 -352 -182 -437 -359 -52 -109 -65 -170 -64 -300
1 -89 6 -125 27 -190 93 -286 339 -465 636 -465 166 0 304 49 428 150 145 118
243 326 243 515 0 132 -55 294 -138 405 -86 115 -234 212 -372 244 -80 19
-245 19 -323 0z m287 -115 c151 -29 315 -164 378 -309 91 -212 45 -454 -118
-615 -106 -105 -230 -155 -385 -155 -153 0 -280 53 -385 158 -214 213 -215
556 -4 770 140 141 309 191 514 151z"/>
<path d="M1020 1270 c-212 -27 -390 -184 -445 -391 -20 -72 -19 -202 1 -270
55 -187 208 -337 384 -378 68 -16 209 -13 271 5 126 37 250 131 311 235 223
380 -88 856 -522 799z m135 -100 c230 -38 398 -270 357 -492 -44 -234 -254
-389 -486 -357 -84 11 -192 67 -250 129 -26 28 -62 81 -79 118 -30 63 -32 74
-32 178 0 107 1 112 37 185 45 92 112 158 202 200 97 45 156 55 251 39z"/>
<path d="M887 976 c-74 -27 -117 -88 -117 -166 0 -81 62 -171 213 -309 49 -45
94 -81 101 -81 6 0 66 53 132 118 136 132 174 193 174 274 0 57 -18 96 -60
132 -65 54 -155 54 -219 0 -18 -15 -32 -20 -36 -14 -10 16 -77 48 -115 54 -20
3 -52 0 -73 -8z"/>
<path d="M254 1285 c-4 -14 -4 -29 -1 -32 4 -3 -4 -14 -18 -24 -13 -11 -29
-35 -35 -54 -15 -45 7 -91 49 -100 36 -8 55 2 100 49 39 40 51 44 51 18 0 -20
-29 -52 -48 -52 -11 0 -32 -31 -32 -47 0 -15 72 -45 82 -35 5 5 10 20 12 34 1
14 15 40 29 58 34 40 37 100 7 130 -34 34 -68 24 -132 -38 -26 -25 -41 -33
-48 -26 -17 17 0 45 30 51 17 3 32 15 39 30 7 14 10 27 9 28 -10 8 -69 35 -77
35 -6 0 -13 -11 -17 -25z"/>
<path d="M1988 1073 c-9 -2 -15 -10 -12 -17 3 -8 -20 -18 -73 -30 -49 -12 -78
-15 -81 -8 -4 13 -42 3 -42 -12 0 -23 27 -112 44 -144 36 -69 132 -77 194 -16
26 26 32 40 32 75 0 45 -28 160 -39 158 -3 -1 -14 -3 -23 -6z m12 -128 c0 -32
-39 -57 -91 -59 -38 -1 -58 13 -59 39 0 6 26 18 58 27 84 23 92 22 92 -7z"/>
<path d="M115 955 c-22 -133 -26 -198 -13 -206 18 -12 78 -11 78 0 0 5 3 16 6
25 5 12 0 16 -20 16 -16 0 -26 6 -26 15 0 17 24 19 107 9 40 -5 53 -11 56 -26
4 -13 12 -18 24 -16 23 4 41 117 20 130 -20 13 -37 9 -37 -8 0 -13 -9 -14 -57
-9 -79 9 -93 14 -93 31 0 10 8 14 23 12 17 -2 23 2 25 23 3 25 0 27 -42 31
-44 3 -46 2 -51 -27z"/>
<path d="M1827 693 c-3 -21 -9 -65 -13 -99 l-6 -61 32 -7 c52 -10 57 -8 62 24
4 26 1 30 -19 30 -16 0 -23 6 -23 19 0 11 4 22 9 25 14 9 145 -12 149 -24 2
-5 15 -10 28 -10 19 0 24 5 24 24 0 13 3 37 6 52 l6 29 -97 1 c-80 0 -99 3
-107 17 -17 32 -45 20 -51 -20z"/>
<path d="M299 648 c-31 -8 -35 -12 -31 -34 3 -15 15 -29 28 -34 27 -11 32 -45
8 -54 -30 -12 -42 -6 -48 25 -4 22 -11 30 -23 27 -14 -3 -18 -12 -16 -40 2
-31 -1 -36 -22 -40 -19 -4 -25 0 -30 20 -4 17 -1 28 8 33 9 6 12 18 9 35 -4
24 -8 26 -40 21 -19 -4 -36 -8 -38 -10 -2 -2 6 -48 18 -101 23 -101 40 -125
64 -92 13 19 154 60 154 45 0 -5 11 -9 25 -9 14 0 25 6 25 13 0 15 -47 198
-52 201 -1 2 -19 -1 -39 -6z"/>
<path d="M1751 393 c-23 -48 -18 -65 19 -62 8 1 20 1 27 0 16 -1 96 -119 89
-130 -5 -8 15 -21 33 -21 12 0 43 61 37 75 -2 7 -15 15 -27 17 -12 2 -28 13
-37 26 -14 21 -13 22 12 22 15 0 34 -7 42 -15 26 -25 40 -17 64 36 20 43 22
52 10 60 -8 5 -22 6 -30 3 -27 -10 -118 -17 -144 -10 -14 3 -26 13 -26 20 0
13 -20 26 -39 26 -4 0 -17 -21 -30 -47z"/>
<path d="M450 295 c-6 -8 -9 -19 -6 -24 4 -6 -3 -15 -14 -21 -18 -9 -26 -6
-56 19 -19 17 -45 31 -57 31 -45 -1 -83 -53 -68 -92 13 -35 90 -133 104 -133
6 0 18 12 25 27 12 25 105 101 127 104 5 0 16 2 23 2 20 3 14 20 -20 63 -35
43 -40 46 -58 24z m-89 -71 c11 -14 10 -19 -10 -36 -19 -15 -26 -16 -32 -6
-13 19 -11 46 4 51 20 9 24 8 38 -9z"/>
</g>
</svg>
