<svg width="128" height="64" viewBox="0 0 128 64" fill="none" xmlns="http://www.w3.org/2000/svg">
<path d="M69.5891 34.2119C69.4483 33.8793 69.2651 33.7094 69.0792 33.6387C67.6557 33.122 59.0833 30.4822 60.5837 43.115C61.8877 54.0845 63.0216 57.7293 63.4279 58.7555C63.5315 59.0173 63.6563 59.2155 63.7918 59.3499C64.2379 59.7958 65.3453 60.4044 66.3226 57.0216C67.515 52.8885 71.1293 37.8071 69.5891 34.2119Z" fill="#F59C23"/>
<path d="M79.0029 39.6688C88.7598 20.8506 103.701 0.546275 115.887 0.00133496C117.81 -0.0269736 119.746 0.390578 121.6 1.67154C119.701 1.01337 117.797 0.977982 115.911 1.38846C110.236 2.63403 104.768 7.32618 99.4807 12.811C92.406 20.2915 85.6261 29.6121 79.0056 39.6617L79.0029 39.6688Z" fill="#98A5D4"/>
<path d="M79.0029 53.3348C90.5789 45.5216 107.352 41.5867 118.477 54.5167C120.221 56.6044 121.9 59.1735 123.352 62.4573C121.565 59.3079 119.621 57.022 117.622 55.1536C106.024 45.2244 91.0038 49.0744 79.0056 53.3277L79.0029 53.3348Z" fill="#98A5D4"/>
<path d="M49.6288 41.2039C38.637 24.8628 25.3481 6.15079 12.7231 2.92361C10.8376 2.50606 8.93081 2.54145 7.03467 3.2067C8.88832 1.92573 10.8243 1.50818 12.747 1.53649C24.9285 2.08143 39.8666 22.3716 49.6314 41.2039H49.6288Z" fill="#98A5D4"/>
<path d="M49.6291 54.8702C37.6388 50.6169 22.6077 46.7669 11.0131 56.6961C9.01343 58.5574 7.06948 60.8504 5.28223 63.9998C6.73487 60.716 8.41059 58.147 10.158 56.0592C21.2826 43.1292 38.0451 47.0571 49.6317 54.8773L49.6291 54.8702Z" fill="#98A5D4"/>
<path d="M44.7797 42.8882C32.6301 34.1267 18.0372 24.5442 5.49456 29.5619C3.62763 30.3758 1.78195 31.6426 0 33.5039C1.68369 31.0693 3.5214 29.4062 5.39099 28.196C17.2591 20.8641 33.5941 30.9066 44.7797 42.8811V42.8882Z" fill="#98A5D4"/>
<path d="M83.2202 40.0717C94.3952 28.1113 110.738 18.0476 122.609 25.3866C124.479 26.5968 126.316 28.2528 128 30.6944C126.218 28.8332 124.372 27.5663 122.505 26.7525C116.886 24.2967 111.152 25.3158 105.525 27.2337C97.9804 29.923 90.5551 34.594 83.2202 40.0717Z" fill="#98A5D4"/>
</svg>
