<svg width="56" height="45" viewBox="0 0 56 45" fill="none" xmlns="http://www.w3.org/2000/svg">
<path d="M48.9542 0H7.0458C5.17714 0 3.38501 0.746859 2.06367 2.07628C0.742323 3.40569 0 5.20877 0 7.08885V37.9112C0 39.7912 0.742323 41.5943 2.06367 42.9237C3.38501 44.2531 5.17714 45 7.0458 45H48.9542C50.8229 45 52.615 44.2531 53.9363 42.9237C55.2577 41.5943 56 39.7912 56 37.9112V7.08885C56 5.20877 55.2577 3.40569 53.9363 2.07628C52.615 0.746859 50.8229 0 48.9542 0ZM7.0458 2.83554H48.9542C50.021 2.83244 51.0489 3.23821 51.8289 3.97035C52.6089 4.70248 53.0826 5.70603 53.1535 6.77694C46.1922 10.5198 39.2028 14.2344 32.2134 17.9773C31.2678 18.5735 30.2674 19.0768 29.226 19.4802C28.4084 19.6425 27.5658 19.6278 26.7543 19.4372C25.9428 19.2465 25.1809 18.8842 24.5194 18.3743C20.5174 16.2476 16.5154 14.0926 12.5415 11.966C9.32864 10.2647 6.05939 8.53497 2.8465 6.80529C2.91186 5.72982 3.38289 4.72003 4.16337 3.98222C4.94384 3.24441 5.97486 2.83425 7.0458 2.83554ZM53.1817 37.9112C53.1817 39.0392 52.7363 40.121 51.9435 40.9187C51.1507 41.7163 50.0754 42.1645 48.9542 42.1645H7.0458C5.9246 42.1645 4.84933 41.7163 4.05652 40.9187C3.26371 40.121 2.81832 39.0392 2.81832 37.9112V10.0236C9.46955 13.5397 16.0926 17.1125 22.7438 20.6569C23.9322 21.3899 25.2115 21.962 26.5486 22.3582C28.5056 22.6783 30.5113 22.2647 32.1852 21.1957C36.2718 19.0406 40.3302 16.8573 44.4167 14.7023C47.3478 13.1144 50.2506 11.5832 53.1817 10.0236V37.9112Z" fill="black"/>
</svg>
