<svg width="57" height="57" viewBox="0 0 57 57" fill="none" xmlns="http://www.w3.org/2000/svg">
<path d="M28.5 3.5625C23.3053 3.56863 18.3251 5.63493 14.6519 9.30815C10.9787 12.9814 8.9124 17.9615 8.90627 23.1562C8.90005 27.4014 10.2867 31.5313 12.8535 34.9125C12.8535 34.9125 13.3879 35.6161 13.4752 35.7176L28.5 53.4375L43.532 35.7087C43.6104 35.6143 44.1465 34.9125 44.1465 34.9125L44.1483 34.9072C46.7138 31.5274 48.0999 27.3994 48.0938 23.1562C48.0876 17.9615 46.0213 12.9814 42.3481 9.30815C38.6749 5.63493 33.6947 3.56863 28.5 3.5625ZM28.5 30.2812C27.0908 30.2812 25.7133 29.8634 24.5416 29.0805C23.3699 28.2976 22.4567 27.1848 21.9174 25.8829C21.3781 24.5809 21.237 23.1483 21.5119 21.7662C21.7868 20.3841 22.4654 19.1146 23.4619 18.1181C24.4583 17.1217 25.7279 16.4431 27.11 16.1682C28.4921 15.8932 29.9247 16.0343 31.2266 16.5736C32.5286 17.1129 33.6413 18.0261 34.4242 19.1978C35.2071 20.3695 35.625 21.7471 35.625 23.1562C35.6227 25.0452 34.8712 26.8561 33.5356 28.1918C32.1999 29.5275 30.389 30.2789 28.5 30.2812Z" fill="black"/>
</svg>
