<svg width="69" height="69" viewBox="0 0 69 69" fill="none" xmlns="http://www.w3.org/2000/svg">
<g clip-path="url(#clip0_478_2022)">
<path d="M11.2608 29.5973C11.0415 29.8208 10.7798 29.9984 10.491 30.1196C10.2022 30.2408 9.89217 30.3033 9.57897 30.3033C9.26578 30.3033 8.95573 30.2408 8.66695 30.1196C8.37817 29.9984 8.11645 29.8208 7.8971 29.5973C7.45062 29.1431 7.20044 28.5316 7.20044 27.8947C7.20044 27.2578 7.45062 26.6464 7.8971 26.1921L28.704 5.17473C33.396 1.53153 38.1157 -0.217619 42.8145 0.0204308C48.7347 0.324031 53.344 2.58033 57.2563 6.28218C61.2445 10.0565 63.8251 15.4419 63.8251 21.9693C63.8251 26.9787 62.3692 31.3878 59.2952 35.3001L29.9598 65.5221C26.9928 67.9544 23.6946 69.1308 20.1618 68.9894C15.6768 68.8031 12.3407 67.3541 9.86015 64.9011C6.95525 62.0342 5.17505 58.5117 5.17505 53.7749C5.17505 50.0075 6.4757 46.5299 9.1598 43.2662L34.9796 16.9047C37.0496 14.6967 39.0747 13.3857 41.1447 13.0683C42.5264 12.8507 43.9402 12.9743 45.2632 13.4283C46.5861 13.8823 47.7779 14.6529 48.7348 15.6731C50.5702 17.6154 51.3568 20.0373 51.0807 22.7939C50.891 24.6741 50.1217 26.406 48.7071 28.0655L24.9711 52.3811C24.7532 52.6055 24.4928 52.7842 24.2051 52.9069C23.9174 53.0296 23.6081 53.0938 23.2953 53.0957C22.9826 53.0976 22.6725 53.0373 22.3833 52.9181C22.0941 52.799 21.8315 52.6235 21.6108 52.4018C21.1616 51.9503 20.9077 51.3404 20.9038 50.7034C20.8999 50.0665 21.1464 49.4536 21.5901 48.9966L45.2123 24.8052C45.9023 23.9945 46.2645 23.1768 46.3508 22.3074C46.4888 20.9274 46.1576 19.9097 45.2985 19.0023C44.8647 18.5376 44.3227 18.1874 43.7208 17.9827C43.1189 17.7781 42.4757 17.7254 41.8485 17.8293C41.0102 17.957 39.8372 18.7194 38.3917 20.2581L12.6788 46.5023C10.8261 48.762 9.92915 51.1598 9.92915 53.7783C9.92915 57.0696 11.1194 59.426 13.179 61.458C14.8178 63.0795 17.043 64.0455 20.355 64.1835C22.701 64.2767 24.8745 63.5004 26.7651 61.9686L55.7348 32.1261C57.9601 29.273 59.0709 25.9161 59.0709 21.9728C59.0709 16.8599 57.0803 12.713 54.0064 9.80118C50.8669 6.82728 47.2788 5.07468 42.5765 4.83318C39.0989 4.65378 35.4522 6.00618 31.8228 8.78688L11.2608 29.5973Z" fill="white"/>
</g>
<defs>
<clipPath id="clip0_478_2022">
<rect width="69" height="69" fill="white"/>
</clipPath>
</defs>
</svg>
