<svg width="22" height="26" viewBox="0 0 22 26" fill="none" xmlns="http://www.w3.org/2000/svg">
<ellipse cx="8.21344" cy="18" rx="7.57282" ry="8" fill="#98A5D4"/>
<path d="M14.4822 12.2337L14.4826 12.2342L14.4826 12.2342L14.4874 12.2397L14.675 12.0745L14.4874 12.2397L14.4875 12.2399L14.4882 12.2406L14.4908 12.2436L14.5017 12.256L14.5445 12.3051C14.582 12.3484 14.6372 12.4123 14.7074 12.4945C14.8479 12.6589 15.0485 12.8964 15.2884 13.1882C15.7683 13.772 16.4042 14.5717 17.0301 15.4369C17.6568 16.3034 18.2689 17.2295 18.7043 18.0669C18.922 18.4856 19.0925 18.8765 19.199 19.2227C19.3067 19.5723 19.343 19.857 19.3121 20.0714C19.1782 21.0005 18.5147 21.4516 17.7397 21.6414C16.952 21.8343 16.1145 21.7357 15.7833 21.6114C15.5545 21.5256 15.1039 21.462 14.5801 21.4168C14.0432 21.3705 13.3937 21.3409 12.7426 21.3345C12.0919 21.3282 11.4351 21.345 10.8848 21.3923C10.6098 21.416 10.3576 21.4476 10.1443 21.4887C9.95385 21.5254 9.77824 21.5726 9.64278 21.6371C9.63141 21.6391 9.61711 21.6416 9.60006 21.6444C9.54972 21.6528 9.47554 21.6643 9.38218 21.6763C9.19522 21.7004 8.93264 21.7266 8.63143 21.7349C8.02212 21.7516 7.28442 21.6938 6.69313 21.4215C6.12007 21.1575 5.68453 20.6952 5.62953 19.8596C5.57258 18.9945 5.92154 17.7028 7.03498 15.8019C9.26096 12.0017 11.155 11.2007 12.4195 11.2523C13.0618 11.2785 13.5788 11.524 13.9385 11.7671C14.118 11.8884 14.2564 12.0079 14.3491 12.0961C14.3954 12.1402 14.4301 12.1762 14.4526 12.2005C14.4638 12.2127 14.472 12.2219 14.477 12.2276L14.4822 12.2337Z" stroke="black" stroke-width="0.5"/>
<path d="M4.54659 6.56496C5.0716 6.05962 5.90638 6.17751 6.33882 6.81744C6.37602 6.88414 6.42368 6.95424 6.4833 7.0179C6.82857 7.42128 8.19083 9.08984 7.93055 11.573C7.85077 12.3341 7.61226 12.8191 7.33976 13.1311C7.06649 13.444 6.74344 13.6009 6.46609 13.6792C6.04653 13.7976 5.60136 13.8569 5.19118 13.8045C4.644 13.7346 3.7005 13.3209 3.00563 11.3524L3.00548 11.3519C2.24978 9.22315 3.59998 7.47006 4.54599 6.56554L4.54659 6.56496Z" stroke="black" stroke-width="0.5"/>
<path d="M10.0338 0.258759L10.0369 0.258713L10.0369 0.258837H10.0507H10.0576H10.0738L10.0891 0.256849C10.0891 0.256853 10.0892 0.256834 10.0893 0.256823C10.0894 0.256816 10.0893 0.256821 10.0895 0.256807L10.0895 0.256797L10.0896 0.256781L10.0931 0.256394L10.1113 0.254648C10.128 0.253221 10.1532 0.251493 10.1843 0.2506C10.2473 0.248789 10.3307 0.250541 10.4166 0.263484C10.5973 0.29071 10.7092 0.353031 10.7536 0.442475C10.7551 0.451599 10.757 0.465296 10.759 0.484422C10.7637 0.527782 10.7682 0.588377 10.7724 0.665808C10.7807 0.82008 10.7871 1.03008 10.7919 1.27988C10.8014 1.77885 10.8043 2.42808 10.803 3.08939C10.8004 4.4145 10.7813 5.77541 10.7678 6.06635C10.7567 6.30697 10.6741 6.45859 10.5758 6.55399C10.4744 6.65243 10.3389 6.70749 10.1996 6.72159C10.1585 6.72533 10.1227 6.73071 10.0887 6.73583C9.98524 6.75137 9.8988 6.76437 9.73447 6.72054C9.50852 6.66027 9.14372 6.48441 8.54439 5.99575C7.53672 5.17414 7.5288 4.24532 7.52132 3.36756C7.5205 3.27185 7.51969 3.17674 7.51759 3.08245L7.51759 3.08229C7.50506 2.53562 7.65169 2.14957 7.88792 1.81941C8.12286 1.49104 8.44703 1.21497 8.83026 0.888603C8.84675 0.87456 8.86335 0.860424 8.88005 0.846187C9.25398 0.527513 9.55903 0.382421 9.76045 0.315983C9.86149 0.282654 9.93767 0.268714 9.98487 0.262871C10.0085 0.259945 10.025 0.259035 10.0338 0.258759Z" stroke="black" stroke-width="0.5"/>
<path d="M14.4564 7.53026C14.5183 7.54409 14.5855 7.57276 14.6349 7.59397C14.6471 7.59922 14.6592 7.60447 14.6713 7.60972C14.7167 7.62938 14.762 7.649 14.8121 7.66837C14.9382 7.71707 15.0676 7.75268 15.1961 7.74984C15.3177 7.74716 15.4489 7.7101 15.586 7.59288C15.7282 7.47141 15.8874 7.2544 16.0376 6.87349L16.0378 6.873C16.4927 5.7264 16.5148 4.43257 16.4633 3.50187L16.4633 3.5015C16.4274 2.83595 16.3793 2.34128 16.2497 1.9261C16.1234 1.52183 15.9174 1.18625 15.5491 0.849745C15.4838 0.791269 15.4488 0.765044 15.3983 0.727132C15.3954 0.724909 15.3923 0.722646 15.3893 0.720333C15.3291 0.675147 15.2536 0.617681 15.1132 0.497907C14.8595 0.288285 14.5054 0.210848 14.1539 0.268335C13.8021 0.325882 13.479 0.514705 13.2885 0.80237L13.2523 0.85702C13.2475 0.86676 13.2428 0.876966 13.2382 0.887508C13.2374 0.892651 13.2349 0.906906 13.2319 0.934282C13.2272 0.977449 13.2227 1.03693 13.2187 1.11243C13.2107 1.26291 13.2051 1.46593 13.2015 1.70679C13.1944 2.18789 13.1954 2.81085 13.2006 3.44709C13.2112 4.72032 13.2389 6.0376 13.2517 6.36417C13.2604 6.58424 13.4435 6.85229 13.7327 7.10015C14.0158 7.34285 14.3226 7.49971 14.4564 7.53026ZM14.4564 7.53026C14.4566 7.5303 14.4568 7.53034 14.4569 7.53038L14.4017 7.7742L14.4559 7.53015C14.4561 7.53019 14.4563 7.53023 14.4564 7.53026Z" stroke="black" stroke-width="0.5"/>
<path d="M17.8397 6.98558L17.8437 6.97721L17.8471 6.96858C17.9808 6.6249 18.2146 6.39886 18.4601 6.30335C18.7001 6.20999 18.9662 6.23387 19.2066 6.41668C19.6198 6.73263 20.1991 7.47918 20.6322 8.43862C21.0633 9.39392 21.3317 10.5218 21.1665 11.5919L21.1665 11.5919C20.9187 13.1976 20.4494 13.9854 20.0755 14.3694C19.8886 14.5614 19.7218 14.6566 19.6096 14.7039C19.5532 14.7276 19.5096 14.7397 19.4831 14.7456C19.48 14.7463 19.4772 14.7469 19.4746 14.7474C19.4642 14.7457 19.4511 14.7434 19.4356 14.7405C19.3874 14.7312 19.3156 14.7153 19.2268 14.689C19.0487 14.6364 18.804 14.543 18.5425 14.3809C18.0247 14.0597 17.4284 13.462 17.1568 12.3399C16.88 11.1961 16.9718 10.007 17.1662 9.04228C17.3612 8.07506 17.6541 7.35793 17.7566 7.16698L17.7568 7.16712L17.7619 7.1564C17.7763 7.12625 17.7904 7.0946 17.8029 7.06646L17.8036 7.06504C17.8168 7.03529 17.8284 7.00926 17.8397 6.98558ZM19.5029 14.7516C19.5031 14.7516 19.5031 14.7516 19.503 14.7516L19.5029 14.7516Z" stroke="black" stroke-width="0.5"/>
</svg>
