<svg width="39" height="38" viewBox="0 0 39 38" fill="none" xmlns="http://www.w3.org/2000/svg">
<g clip-path="url(#clip0_28_117)">
<path d="M8.9068 3.15372C8.7629 2.97337 8.58127 2.82491 8.37396 2.71821C8.16666 2.61151 7.93843 2.549 7.70442 2.53485C7.47042 2.5207 7.23601 2.55522 7.01675 2.63613C6.79749 2.71703 6.59841 2.84247 6.43273 3.0041L3.91236 5.46222C2.73505 6.61172 2.30117 8.2386 2.81548 9.66597C4.95251 15.5729 8.42455 20.9363 12.975 25.36C17.5151 29.7937 23.0197 33.1767 29.082 35.259C30.5469 35.7601 32.2166 35.3373 33.3964 34.1902L35.9167 31.7345C36.0826 31.573 36.2114 31.3791 36.2944 31.1654C36.3774 30.9518 36.4129 30.7234 36.3983 30.4954C36.3838 30.2674 36.3197 30.045 36.2101 29.843C36.1006 29.641 35.9483 29.4641 35.7632 29.3238L30.1399 25.0631C29.9419 24.914 29.7119 24.8104 29.4671 24.7602C29.2222 24.7101 28.9689 24.7145 28.7261 24.7733L23.388 26.0725C22.6754 26.2448 21.9292 26.235 21.2216 26.0441C20.5141 25.8531 19.8691 25.4874 19.349 24.9823L13.3625 19.147C12.8438 18.6405 12.468 18.0122 12.2716 17.3227C12.0752 16.6333 12.0647 15.9061 12.2413 15.2116L13.577 10.0104C13.6374 9.77376 13.642 9.52693 13.5905 9.28837C13.539 9.04981 13.4327 8.8257 13.2797 8.63285L8.9068 3.15372ZM4.59242 1.21335C5.01897 0.797604 5.53141 0.475034 6.09572 0.267057C6.66003 0.0590803 7.26329 -0.0295437 7.86545 0.00707002C8.46761 0.0436837 9.05488 0.204697 9.58828 0.479419C10.1217 0.75414 10.589 1.13628 10.9592 1.60047L15.332 7.07722C16.134 8.08185 16.4167 9.39047 16.0999 10.6255L14.7665 15.8267C14.6981 16.0961 14.7021 16.3782 14.7781 16.6457C14.8541 16.9132 14.9995 17.1571 15.2004 17.3538L21.1894 23.1892C21.3915 23.3854 21.6423 23.5273 21.9173 23.6014C22.1923 23.6755 22.4822 23.6791 22.7591 23.612L28.0948 22.3128C28.7204 22.1613 29.373 22.15 30.0038 22.2795C30.6345 22.4091 31.2269 22.6763 31.7364 23.061L37.3573 27.3217C39.378 28.8536 39.5632 31.763 37.7546 33.5228L35.2342 35.9786C33.4305 37.7361 30.7346 38.508 28.2215 37.6458C21.7882 35.4432 15.9476 31.855 11.1347 27.1483C6.30445 22.4595 2.62183 16.7695 0.360921 10.502C-0.521454 8.05572 0.270734 5.4266 2.07448 3.6691L4.59242 1.21335Z" fill="black"/>
</g>
<defs>
<clipPath id="clip0_28_117">
<rect width="39" height="38" fill="white"/>
</clipPath>
</defs>
</svg>
