<svg width="93" height="93" viewBox="0 0 93 93" fill="none" xmlns="http://www.w3.org/2000/svg">
<g clip-path="url(#clip0_478_2020)">
<path d="M92.7907 3.98722C93.0021 3.45908 93.0539 2.8805 92.9396 2.32322C92.8252 1.76594 92.5499 1.25446 92.1476 0.852199C91.7454 0.449936 91.2339 0.174577 90.6766 0.0602603C90.1193 -0.0540567 89.5407 -0.00230514 89.0126 0.209099L4.45815 34.032H4.45234L1.82509 35.0783C1.32748 35.2768 0.894423 35.6089 0.573748 36.0381C0.253073 36.4673 0.0572631 36.9767 0.00794668 37.5102C-0.0413697 38.0436 0.0577272 38.5803 0.294291 39.061C0.530855 39.5417 0.895679 39.9476 1.34846 40.234L3.73159 41.7452L3.7374 41.7568L32.7708 60.229L51.243 89.2624L51.2546 89.274L52.7658 91.6572C53.0531 92.1082 53.4593 92.4712 53.9396 92.7063C54.4199 92.9414 54.9558 93.0394 55.4882 92.9895C56.0206 92.9396 56.5289 92.7438 56.9572 92.4236C57.3855 92.1034 57.7172 91.6713 57.9157 91.1747L92.7907 3.98722ZM82.1364 14.9728L38.5775 58.5317L37.3278 56.5671C37.0989 56.2066 36.7932 55.901 36.4327 55.672L34.4681 54.4223L78.027 10.8634L84.8741 8.12572L82.1364 14.9728Z" fill="white"/>
</g>
<defs>
<clipPath id="clip0_478_2020">
<rect width="93" height="93" fill="white"/>
</clipPath>
</defs>
</svg>
