<svg width="84" height="85" viewBox="0 0 84 85" fill="none" xmlns="http://www.w3.org/2000/svg">
<path d="M58.1001 20.6125C55.7075 17.8487 54.3891 14.2992 54.3901 10.625H43.5751V54.5417C43.4916 56.9182 42.5001 59.1693 40.8092 60.8208C39.1184 62.4724 36.8601 63.3955 34.5101 63.3958C29.5401 63.3958 25.4101 59.2875 25.4101 54.1875C25.4101 48.0958 31.2201 43.5271 37.2051 45.4042V34.2125C25.1301 32.5833 14.5601 42.075 14.5601 54.1875C14.5601 65.9813 24.2201 74.375 34.4751 74.375C45.4651 74.375 54.3901 65.3438 54.3901 54.1875V31.9104C58.7755 35.0974 64.0408 36.8073 69.4401 36.7979V25.8542C69.4401 25.8542 62.8601 26.1729 58.1001 20.6125Z" fill="black"/>
</svg>
