<svg width="41" height="45" viewBox="0 0 41 45" fill="none" xmlns="http://www.w3.org/2000/svg">
<path d="M2.16699 37.7507C2.16699 35.0543 3.13276 32.4684 4.85185 30.5617C6.57093 28.6551 8.90251 27.584 11.3337 27.584H29.667C32.0981 27.584 34.4297 28.6551 36.1488 30.5617C37.8679 32.4684 38.8337 35.0543 38.8337 37.7507C38.8337 39.0988 38.3508 40.3918 37.4912 41.3451C36.6317 42.2984 35.4659 42.834 34.2503 42.834H6.75033C5.53475 42.834 4.36896 42.2984 3.50942 41.3451C2.64988 40.3918 2.16699 39.0988 2.16699 37.7507Z" stroke="black" stroke-width="2.5" stroke-linejoin="round"/>
<path d="M20.5 17.417C24.297 17.417 27.375 14.0032 27.375 9.79199C27.375 5.58082 24.297 2.16699 20.5 2.16699C16.703 2.16699 13.625 5.58082 13.625 9.79199C13.625 14.0032 16.703 17.417 20.5 17.417Z" stroke="black" stroke-width="2.5"/>
</svg>
