<svg width="85" height="85" viewBox="0 0 85 85" fill="none" xmlns="http://www.w3.org/2000/svg">
<path d="M42.4997 31.8752C39.0761 31.8752 36.1542 30.6651 33.734 28.245C31.3139 25.8248 30.1038 22.9029 30.1038 19.4793C30.1038 16.0557 31.3139 13.1338 33.734 10.7137C36.1542 8.29357 39.0761 7.0835 42.4997 7.0835C45.9233 7.0835 48.8452 8.29357 51.2653 10.7137C53.6854 13.1338 54.8955 16.0557 54.8955 19.4793C54.8955 22.9029 53.6854 25.8248 51.2653 28.245C48.8452 30.6651 45.9233 31.8752 42.4997 31.8752ZM42.4997 77.9168L21.2497 56.6668C20.0691 55.4863 19.1837 54.1581 18.5934 52.6825C18.0031 51.2068 17.708 49.5835 17.708 47.8127C17.708 44.33 18.9039 41.3928 21.2957 39.001C23.6875 36.6092 26.6236 35.4145 30.1038 35.4168C31.8156 35.4168 33.3952 35.7415 34.8426 36.3908C36.29 37.0401 37.6027 37.955 38.7809 39.1356L42.4997 42.8543L46.2184 39.1356C47.399 37.955 48.7129 37.0401 50.1603 36.3908C51.6077 35.7415 53.1861 35.4168 54.8955 35.4168C58.3781 35.4168 61.3154 36.6127 63.7072 39.0045C66.099 41.3963 67.2937 44.3324 67.2913 47.8127C67.2913 49.5835 66.9962 51.2068 66.4059 52.6825C65.8156 54.1581 64.9302 55.4863 63.7497 56.6668L42.4997 77.9168Z" fill="black"/>
</svg>
