<?xml version="1.0" standalone="no"?>
<!DOCTYPE svg PUBLIC "-//W3C//DTD SVG 20010904//EN"
 "http://www.w3.org/TR/2001/REC-SVG-20010904/DTD/svg10.dtd">
<svg version="1.0" xmlns="http://www.w3.org/2000/svg"
 width="512.000000pt" height="512.000000pt" viewBox="0 0 512.000000 512.000000"
 preserveAspectRatio="xMidYMid meet">

<g transform="translate(0.000000,512.000000) scale(0.100000,-0.100000)"
fill="#000000" stroke="none">
<path d="M3788 3658 c-57 -15 -123 -80 -160 -156 -32 -65 -33 -70 -33 -197 0
-122 2 -133 28 -187 33 -67 72 -99 131 -105 54 -6 79 7 111 57 31 49 74 56
101 15 30 -45 -19 -130 -99 -170 -129 -64 -278 1 -349 150 -36 78 -51 161 -46
256 l5 77 -116 6 c-64 4 -219 11 -346 16 -248 10 -264 13 -438 79 -128 50
-332 103 -477 126 -161 25 -448 31 -610 12 -436 -51 -702 -213 -858 -523 -65
-129 -171 -490 -191 -655 -18 -136 20 -277 106 -404 41 -61 86 -109 205 -222
74 -71 119 -147 143 -243 9 -36 21 -82 26 -102 l10 -38 411 0 c406 0 411 0
394 19 -26 29 -100 51 -191 58 -44 3 -85 10 -91 15 -56 43 46 204 176 281 25
14 87 38 139 53 l94 27 321 -6 c176 -3 355 -11 397 -17 201 -28 367 -133 510
-323 34 -45 71 -87 83 -94 13 -8 69 -12 154 -13 l134 0 -41 46 c-50 57 -64
100 -59 173 10 145 191 329 378 386 47 14 106 16 426 15 397 -1 474 5 558 45
54 26 126 80 126 96 0 5 -22 9 -48 9 -91 0 -285 62 -334 107 -23 21 -23 55 0
76 25 23 40 21 104 -8 82 -38 202 -65 285 -65 71 0 74 1 84 27 30 80 20 210
-23 298 -51 103 -235 312 -373 425 -106 86 -279 198 -331 214 -19 6 -22 2 -26
-39 -9 -74 -48 -103 -95 -70 -19 13 -21 26 -25 157 -4 122 -8 151 -27 196 -48
107 -139 150 -253 120z m579 -794 c18 -24 16 -54 -4 -76 -24 -26 -116 -25
-143 2 -27 27 -25 46 6 77 22 22 32 25 76 21 34 -4 56 -12 65 -24z"/>
<path d="M280 2259 c-51 -31 -110 -79 -110 -90 0 -23 150 6 166 33 7 12 -4 78
-14 78 -4 0 -23 -10 -42 -21z"/>
</g>
</svg>
