<?xml version="1.0" standalone="no"?>
<!DOCTYPE svg PUBLIC "-//W3C//DTD SVG 20010904//EN"
 "http://www.w3.org/TR/2001/REC-SVG-20010904/DTD/svg10.dtd">
<svg version="1.0" xmlns="http://www.w3.org/2000/svg"
 width="512.000000pt" height="512.000000pt" viewBox="0 0 512.000000 512.000000"
 preserveAspectRatio="xMidYMid meet">

<g transform="translate(0.000000,512.000000) scale(0.100000,-0.100000)"
fill="#000000" stroke="none">
<path d="M983 4431 c-56 -19 -63 -26 -160 -160 -116 -160 -103 -113 -193 -732
-45 -305 -82 -572 -82 -594 -2 -75 109 -304 340 -700 147 -253 149 -255 217
-292 109 -59 288 -136 355 -153 l65 -17 7 -97 c8 -111 28 -189 67 -261 l27
-50 -114 -289 c-134 -337 -111 -313 -307 -326 -128 -9 -161 -17 -186 -46 -31
-37 -31 -46 0 -23 28 21 41 23 94 20 61 -4 209 -6 277 -3 19 1 89 -1 155 -4
90 -4 124 -9 137 -21 27 -24 22 4 -5 31 -17 17 -40 25 -88 30 -76 8 -129 24
-129 38 0 6 95 223 211 483 l211 472 110 1 c60 1 139 7 175 12 36 6 66 9 67 8
2 -2 11 -25 21 -53 38 -107 90 -190 168 -270 l78 -80 -79 -275 -79 -275 -37
-18 c-26 -13 -73 -21 -160 -27 -120 -8 -152 -16 -189 -48 -29 -26 -19 -30 23
-10 36 18 45 19 115 7 47 -7 106 -9 158 -5 45 4 89 7 97 6 8 -1 69 -4 135 -6
90 -4 124 -9 137 -21 27 -24 22 4 -5 31 -17 17 -40 25 -88 30 -74 8 -129 24
-129 37 0 5 58 173 129 373 l128 364 -13 64 c-14 65 -18 207 -8 268 5 32 14
40 77 75 79 44 188 141 244 218 l37 49 84 -6 85 -7 181 -113 c391 -244 703
-412 859 -461 91 -29 107 -30 107 -10 0 28 -198 214 -500 470 l-105 88 295 -6
c320 -8 518 3 557 28 51 34 -9 74 -220 149 -146 52 -329 125 -339 135 -4 3 45
19 110 35 218 53 342 100 342 131 0 35 -133 46 -567 46 l-383 0 -165 76 c-164
76 -165 76 -165 109 0 56 -50 87 -384 234 -236 104 -306 139 -306 152 0 30
-71 91 -155 135 -116 60 -222 93 -323 100 -77 6 -93 10 -156 48 -39 23 -115
65 -168 94 -87 47 -98 56 -98 80 0 15 -5 87 -11 160 -9 118 -8 135 6 158 28
43 114 74 236 86 60 6 109 14 109 17 0 3 -13 27 -29 52 -37 58 -84 81 -231
110 -101 21 -126 30 -202 76 -57 35 -113 59 -164 72 -100 26 -239 26 -311 1z
m241 -254 c17 -12 16 -15 -10 -46 -15 -18 -38 -37 -51 -42 -25 -9 -72 4 -85
24 -14 21 -8 56 10 66 25 15 115 13 136 -2z"/>
</g>
</svg>
